<svg xmlns="http://www.w3.org/2000/svg" xmlns:xlink="http://www.w3.org/1999/xlink" version="1.1" width="129.325pt" height="34.2716pt" viewBox="0 0 129.325 34.2716">
<defs>
<clipPath id="clip_0">
<path transform="matrix(1,0,0,-1,0,34.2716)" d="M0 34.272H129.325V0H0Z"/>
</clipPath>
</defs>
<g id="layer_1" data-name="Layer 1">
<path transform="matrix(1,0,0,-1,86.256,28.1876)" d="M0 0V-6.084H.805V-3.32H3.66V-2.602H.805V-.718H4.104V0Z" fill="#231f20"/>
<path transform="matrix(1,0,0,-1,0,34.2716)" d="M91.544 0H92.35V6.084H91.544Z" fill="#231f20"/>
<path transform="matrix(1,0,0,-1,97.7814,28.1876)" d="M0 0V-4.776L-3.196 0H-4.022V-6.084H-3.249V-1.303L-.054-6.084H.772V0Z" fill="#231f20"/>
<path transform="matrix(1,0,0,-1,99.8739,28.1876)" d="M0 0V-6.084H3.801V-5.366H.805V0Z" fill="#231f20"/>
<g clip-path="url(#clip_0)">
<path transform="matrix(1,0,0,-1,105.7216,31.7736)" d="M0 0H2.063L1.428 1.686C1.234 2.197 1.09 2.618 .996 2.947 .919 2.557 .81 2.17 .668 1.785ZM-1.756-2.498 .581 3.586H1.448L3.938-2.498H3.021L2.312-.655H-.232L-.9-2.498Z" fill="#231f20"/>
<path transform="matrix(1,0,0,-1,110.2959,34.2716)" d="M0 0V6.084H.826L4.021 1.308V6.084H4.794V0H3.968L.772 4.781V0Z" fill="#231f20"/>
<path transform="matrix(1,0,0,-1,117.248,33.5538)" d="M0 0H1.299C1.7 0 2.015 .038 2.243 .112 2.472 .187 2.653 .292 2.789 .428 2.98 .618 3.129 .875 3.235 1.197 3.342 1.52 3.395 1.911 3.395 2.37 3.395 3.007 3.291 3.495 3.082 3.837 2.873 4.179 2.619 4.408 2.32 4.524 2.104 4.607 1.757 4.648 1.278 4.648H0ZM-.805-.718V5.366H1.291C1.764 5.366 2.125 5.338 2.374 5.279 2.723 5.199 3.021 5.054 3.267 4.844 3.587 4.572 3.827 4.226 3.986 3.804 4.146 3.382 4.225 2.9 4.225 2.357 4.225 1.896 4.171 1.486 4.063 1.129 3.955 .772 3.817 .477 3.648 .243 3.479 .009 3.295-.175 3.094-.309 2.894-.443 2.651-.545 2.368-.614 2.084-.684 1.759-.718 1.391-.718Z" fill="#231f20"/>
<path transform="matrix(1,0,0,-1,119.2304,13.104498)" d="M0 0H-3.476V1.826H5.493V0H2.018V-9.513H0ZM-10.264-7.687C-7.733-7.687-5.667-6.599-5.667-3.844-5.667-1.088-7.461 0-9.928 0H-11.77V-7.687ZM-13.787 1.826H-9.318C-6.34 1.826-3.553 0-3.553-3.844-3.553-7.719-6.836-9.513-9.559-9.513H-13.787ZM-22.833 1.826H-15.322V0H-20.815V-2.786H-15.61V-4.612H-20.815V-7.687H-15.034V-9.513H-22.833ZM-29.583 0H-33.06V1.826H-24.091V0H-27.565V-9.513H-29.583ZM-35.282-.608C-35.716 0-36.483 .288-37.269 .288-38.198 .288-39.126-.128-39.126-1.168-39.126-3.443-33.745-2.145-33.745-6.182-33.745-8.616-35.667-9.801-37.894-9.801-39.304-9.801-40.681-9.368-41.608-8.264L-40.087-6.79C-39.591-7.543-38.743-7.976-37.847-7.976-36.917-7.976-35.86-7.463-35.86-6.422-35.86-3.939-41.241-5.365-41.241-1.313-41.241 1.025-39.159 2.115-37.062 2.115-35.876 2.115-34.69 1.778-33.81 .945ZM-55.091 1.826H-52.017L-48.989-6.117-45.931 1.826H-42.888V-9.513H-44.81V-.096H-44.841L-48.284-9.513H-49.694L-53.138-.096H-53.169V-9.513H-55.091ZM-62.327-7.976C-59.973-7.976-58.419-6.182-58.419-3.764-58.419-1.505-59.973 .288-62.327 .288-64.666 .288-66.219-1.505-66.219-3.764-66.219-6.182-64.666-7.976-62.327-7.976M-62.343 2.115C-58.804 2.179-56.305-.191-56.305-3.827-56.305-7.367-58.804-9.736-62.343-9.801-65.835-9.801-68.333-7.432-68.333-3.892-68.333-.256-65.835 2.115-62.343 2.115M-70.553-.833C-71.385 .049-72.153 .288-72.938 .288-75.277 .288-76.83-1.505-76.83-3.764-76.83-6.182-75.277-7.976-72.938-7.976-72.025-7.976-71.145-7.559-70.392-6.599L-68.727-7.784C-69.751-9.192-71.289-9.801-72.955-9.801-76.446-9.801-78.944-7.432-78.944-3.892-78.944-.256-76.446 2.115-72.955 2.115-71.417 2.115-70.104 1.617-68.982 .32Z" fill="#231f20"/>
<path transform="matrix(1,0,0,-1,9.206,17.037098)" d="M0 0C0 4.325 3.507 7.831 7.831 7.831 9.993 7.831 11.95 6.954 13.368 5.537L19.878 12.047C16.795 15.13 12.536 17.037 7.831 17.037-1.578 17.037-9.206 9.409-9.206 0-9.206-9.409-1.578-17.036 7.831-17.036 12.536-17.036 16.795-15.129 19.878-12.046L13.368-5.536C11.95-6.953 9.993-7.83 7.831-7.83 3.507-7.83 0-4.324 0 0" fill="#0065a5"/>
<path transform="matrix(1,0,0,-1,17.0371,9.206099)" d="M0 0C2.162 0 4.119-.877 5.537-2.294L12.038 4.208C7.005 6.987 .555 6.277-3.763 2.037-6.218-.374-7.544-3.502-7.747-6.69-7.195-2.906-3.938 0 0 0" fill="#00aeef"/>
<path transform="matrix(1,0,0,-1,11.9365,26.9795)" d="M0 0C-4.454 0-8.455 1.938-11.209 5.016-9.096-1.99-2.595-7.093 5.101-7.093 9.806-7.093 14.064-5.187 17.147-2.104L10.638 4.406C7.915 1.684 4.154 0 0 0" fill="#00447c"/>
<path transform="matrix(1,0,0,-1,127.6142,12.607498)" d="M0 0H.26C.485 0 .703 .012 .703 .278 .703 .508 .505 .535 .332 .535H0ZM-.252 .74H.375C.768 .74 .955 .584 .955 .268 .955-.034 .765-.16 .516-.187L.993-.92H.722L.271-.206H0V-.92H-.252ZM.29-1.306C.939-1.306 1.459-.779 1.459-.092 1.459 .596 .939 1.123 .29 1.123-.362 1.123-.878 .596-.878-.092-.878-.779-.362-1.306 .29-1.306M.29 1.329C1.061 1.329 1.711 .718 1.711-.092 1.711-.901 1.061-1.513 .29-1.513-.484-1.513-1.13-.901-1.13-.092-1.13 .718-.484 1.329 .29 1.329" fill="#231f20"/>
</g>
</g>
</svg>
