<svg version="1.1" id="Layer_1" xmlns="http://www.w3.org/2000/svg" xmlns:xlink="http://www.w3.org/1999/xlink" x="0px" y="0px"
	 width="100%" viewBox="0 0 384 288" enable-background="new 0 0 384 288" xml:space="preserve">
<path fill="#000000" opacity="1.000000" stroke="none" 
	d="
M31.021208,131.338943 
	C20.590189,127.731506 15.060792,120.000801 12.266514,110.335533 
	C9.323772,100.156731 8.811589,89.696198 11.126218,79.232872 
	C14.775489,62.736259 22.865229,54.679623 39.404362,51.934147 
	C63.012154,48.015274 86.731468,45.008385 110.648438,43.535702 
	C122.938446,42.778950 135.200653,41.534714 147.527390,41.669090 
	C153.265945,41.731647 157.405136,39.936405 159.282013,34.019764 
	C160.127014,31.355976 161.771545,28.946392 163.047760,26.418665 
	C164.562973,23.417545 166.963379,22.585724 170.134903,23.399902 
	C173.257919,24.201630 174.376572,26.339546 174.322311,29.336876 
	C174.301224,30.502264 174.325623,31.674519 174.207108,32.831127 
	C173.400711,40.701447 173.390182,40.689884 181.511963,40.688660 
	C190.175446,40.687351 198.842072,40.577656 207.500778,40.787045 
	C210.773392,40.866180 212.772186,39.711338 214.301300,36.895882 
	C216.843826,32.214428 219.626968,27.663227 222.327728,23.068319 
	C224.063065,20.115959 226.259338,18.019108 230.044571,19.340940 
	C233.959106,20.707926 234.657181,23.787836 234.159744,27.408009 
	C233.730209,30.533882 233.401001,33.690865 232.691833,36.756458 
	C231.867279,40.320885 233.193253,41.560116 236.678909,41.781742 
	C256.586945,43.047543 276.512634,44.218071 296.307800,46.748230 
	C310.307617,48.537640 324.397461,50.117115 338.164062,53.097622 
	C351.971710,56.087021 358.499359,66.667686 361.141541,79.837692 
	C362.999084,89.096527 362.552704,98.361298 360.477142,107.563171 
	C357.076019,122.641762 348.727264,130.692719 333.593048,133.239502 
	C306.526917,137.794159 279.299805,140.930115 251.883728,142.387360 
	C243.078140,142.855392 234.285217,143.603851 225.475647,143.934341 
	C221.924637,144.067566 219.474396,145.120697 218.013474,148.502487 
	C216.826508,151.250076 214.761337,153.389130 211.515213,153.058044 
	C208.119446,152.711700 206.215424,150.394272 205.795288,147.062378 
	C205.473312,144.508850 203.765930,144.370529 201.828705,144.371628 
	C190.999374,144.377762 180.169586,144.431961 169.341049,144.339920 
	C166.613251,144.316711 165.060623,145.558411 163.839066,147.812668 
	C161.856186,151.471863 159.794846,155.095444 157.599319,158.630157 
	C155.973465,161.247742 153.590973,162.744522 150.416031,161.629776 
	C147.324432,160.544312 146.167191,158.108841 146.449448,154.915955 
	C146.552048,153.755310 146.609467,152.590714 146.691238,151.428177 
	C147.244980,143.555725 147.232224,143.547913 138.907684,143.370544 
	C133.249237,143.249969 127.562462,143.573669 121.955368,142.565323 
	C119.354179,142.097534 118.170326,143.386414 116.825150,145.413971 
	C113.350876,150.650665 108.298111,150.273895 105.862938,144.477982 
	C104.687965,141.681427 102.896156,141.405899 100.463257,141.179459 
	C79.604195,139.237961 58.812561,136.744263 38.162674,133.176620 
	C35.879524,132.782150 33.662251,132.006378 31.021208,131.338943 
M349.756378,101.301308 
	C351.415405,93.642723 350.831390,86.058266 348.681213,78.611465 
	C346.384552,70.657440 341.652252,65.332001 332.967377,63.851620 
	C317.898773,61.283104 302.779114,59.050594 287.581940,57.554256 
	C282.835724,57.086933 277.921631,55.192719 272.703918,57.078011 
	C273.323303,58.931477 273.779877,60.506241 274.369354,62.029575 
	C280.553040,78.009689 286.668976,94.017097 293.020569,109.930382 
	C294.580078,113.837479 293.633484,115.593056 289.738373,116.880630 
	C286.244690,118.035515 283.648315,119.056328 281.999542,114.306709 
	C279.218689,106.295937 275.934601,98.459480 272.846375,90.555885 
	C270.150146,83.655502 267.432159,76.763618 264.199402,68.532890 
	C251.780319,90.067520 240.078888,110.357742 228.374359,130.653320 
	C230.778748,132.089340 232.491928,131.741150 234.104782,131.648453 
	C244.061478,131.076202 254.011017,130.381058 263.965942,129.775986 
	C285.878693,128.444122 307.559448,125.273521 329.278442,122.191246 
	C340.964142,120.532845 347.280304,115.656090 349.756378,101.301308 
M60.317997,103.827690 
	C63.608379,100.072128 66.881500,96.301270 70.192558,92.564026 
	C78.361954,83.343124 86.546906,74.136009 94.729897,64.927162 
	C96.711700,62.696907 99.041847,61.032722 102.158134,62.028515 
	C104.997566,62.935841 106.076881,65.219498 106.440041,68.153114 
	C107.275696,74.903473 108.380539,81.620285 109.357170,88.353462 
	C110.993774,99.636665 112.615608,110.922020 114.243652,122.206467 
	C114.562416,122.269363 114.881172,122.332260 115.199928,122.395157 
	C126.453613,99.754845 137.707291,77.114532 149.286194,53.819931 
	C142.073303,52.909828 136.002777,53.808697 129.897232,54.090149 
	C100.147232,55.461552 70.620598,58.790100 41.200520,63.344322 
	C31.911880,64.782196 25.969900,69.530762 23.358423,78.426018 
	C20.366709,88.616470 20.740812,98.835693 24.116425,108.830482 
	C26.682722,116.428993 32.131741,120.467812 40.267967,121.767586 
	C56.839272,124.414886 73.467224,126.562668 90.128242,128.488556 
	C94.160591,128.954666 98.243202,128.986053 102.963997,129.255020 
	C101.382721,113.039925 99.038902,97.657372 96.300690,81.091698 
	C85.427147,93.272484 75.332169,104.316078 65.586388,115.659683 
	C62.653698,119.073181 60.865929,119.590843 57.263054,116.396133 
	C53.357563,112.933083 53.254868,110.435539 57.131454,107.290527 
	C58.153889,106.461044 58.940304,105.340652 60.317997,103.827690 
M215.295090,58.949089 
	C201.293121,83.198387 187.291138,107.447693 172.711441,132.697540 
	C183.410797,132.697540 192.560928,132.402420 201.679306,132.812714 
	C206.814880,133.043823 208.206345,130.831009 208.733826,126.272270 
	C210.050552,114.892029 211.786926,103.560654 213.325867,92.205734 
	C214.978165,80.014381 216.597321,67.818527 218.409027,54.295189 
	C216.935318,56.463543 216.285706,57.419346 215.295090,58.949089 
M203.550262,55.611298 
	C205.424072,52.055206 202.395615,52.523884 200.728699,52.489178 
	C193.411102,52.336834 186.089172,52.380764 178.768799,52.375141 
	C171.300369,52.369404 171.319122,52.502819 170.357040,60.081215 
	C168.163742,77.358192 165.679321,94.599640 163.650696,111.895111 
	C163.140930,116.241264 161.580475,120.650528 162.841660,126.048035 
	C176.606903,102.236137 189.919220,79.207741 203.550262,55.611298 
M229.528046,105.081108 
	C238.847275,88.853539 248.166504,72.625969 257.856323,55.753113 
	C249.964127,53.386673 242.693436,54.851906 235.757645,53.450718 
	C232.155579,52.723022 230.279526,54.253235 229.844040,58.115013 
	C229.027039,65.359856 227.791107,72.556465 226.804214,79.783340 
	C225.098633,92.272949 223.450165,104.770355 221.777725,117.264488 
	C221.999847,117.301071 222.221970,117.337646 222.444077,117.374229 
	C224.675827,113.484406 226.907578,109.594574 229.528046,105.081108 
M138.517502,131.697464 
	C140.181000,131.730606 141.868530,131.595764 143.503342,131.829483 
	C147.807892,132.444885 149.499954,131.079575 150.001907,126.357704 
	C151.473938,112.510437 153.704254,98.744949 155.550140,84.935738 
	C156.396805,78.601830 157.038925,72.240570 157.773804,65.891716 
	C157.425797,65.786644 157.077805,65.681580 156.729813,65.576508 
	C146.055679,87.037277 135.381546,108.498047 124.660034,130.054077 
	C129.229355,132.402939 133.465103,131.396683 138.517502,131.697464 
z"/>
<path fill="#000000" opacity="1.000000" stroke="none" 
	d="
M204.690659,237.132111 
	C202.322144,226.383163 200.006317,216.050018 197.703339,205.774200 
	C200.875275,204.047058 203.735474,204.811813 206.500656,204.743301 
	C208.686966,204.689102 209.119720,206.172424 209.426559,207.997238 
	C211.044312,217.618362 212.760941,227.222885 214.596069,237.706070 
	C216.355820,227.881577 218.280441,218.946030 219.437088,209.912155 
	C220.011307,205.427307 222.411118,204.991791 225.867340,205.005173 
	C229.206711,205.018097 231.917374,205.053009 232.510269,209.659988 
	C233.673645,218.699860 235.500961,227.654282 237.611572,236.689316 
	C238.952454,228.872498 240.411987,221.073715 241.603516,213.234192 
	C243.021347,203.905670 243.909836,203.234787 253.761505,205.405563 
	C254.324249,208.548874 253.028076,211.494781 252.365265,214.497543 
	C249.716003,226.499390 246.808365,238.448181 244.402405,250.497681 
	C243.524368,254.895111 241.160782,255.459259 237.385376,255.469589 
	C233.538773,255.480103 231.212860,254.763947 230.516083,250.357651 
	C229.462418,243.694458 227.738617,237.137222 226.005402,229.185257 
	C224.245163,237.371964 222.553192,244.215042 221.366272,251.144653 
	C220.649261,255.330917 218.019165,255.416748 214.830978,255.387711 
	C211.591751,255.358200 208.507980,255.641739 207.767807,251.168884 
	C207.009628,246.587204 205.771439,242.084946 204.690659,237.132111 
z"/>
<path fill="#000000" opacity="1.000000" stroke="none" 
	d="
M71.348251,214.037354 
	C71.344017,226.526764 71.188431,238.523071 71.416740,250.512070 
	C71.497101,254.732208 69.614052,255.455780 66.014755,255.446976 
	C62.387089,255.438095 60.447956,254.619644 60.626938,250.439514 
	C60.902622,244.001022 60.699497,237.542023 60.096500,230.895325 
	C58.989971,233.946793 57.681118,236.942932 56.828018,240.063690 
	C55.756985,243.981659 53.112793,244.450836 49.612366,244.463531 
	C46.030266,244.476501 43.573330,243.740021 42.528275,239.873688 
	C41.623562,236.526596 40.176445,233.326111 38.327606,230.095001 
	C38.327606,236.931808 38.133118,243.776154 38.397831,250.602707 
	C38.566681,254.957123 36.285809,255.380554 32.829639,255.410797 
	C29.398100,255.440842 27.587984,254.651657 27.631794,250.725357 
	C27.782324,237.234482 27.641216,223.740540 27.728191,210.248535 
	C27.741692,208.154236 26.722315,204.900116 30.337811,204.865387 
	C33.815876,204.831955 38.164036,202.760849 40.210575,207.965485 
	C42.463436,213.694824 44.919266,219.344757 47.317223,225.016357 
	C47.945419,226.502182 48.686905,227.940079 49.735767,230.161026 
	C52.909882,222.720352 56.195797,216.161560 58.495087,209.273422 
	C60.407967,203.542923 64.560890,204.403564 68.545265,204.810425 
	C73.065872,205.272049 70.753693,209.138702 71.325043,211.547836 
	C71.474655,212.178680 71.347878,212.875092 71.348251,214.037354 
z"/>
<path fill="#000000" opacity="1.000000" stroke="none" 
	d="
M140.844391,237.011505 
	C135.896225,236.708557 135.467834,233.766769 135.685318,230.042419 
	C135.938828,225.701752 139.097534,226.671600 141.535522,226.691772 
	C154.165970,226.796387 152.108398,224.977554 152.341660,237.511520 
	C152.481476,245.025024 151.538879,252.173828 143.337387,255.216339 
	C134.063126,258.656830 120.468399,255.757141 120.647926,240.002518 
	C120.731445,232.673492 120.510529,225.337936 120.729317,218.014343 
	C120.963684,210.169464 126.124062,204.593597 133.493866,203.731873 
	C143.315567,202.583450 149.475372,206.174133 151.687378,214.481186 
	C152.253265,216.606400 153.585754,219.582947 150.462448,220.406204 
	C147.520569,221.181625 143.660004,222.560867 141.589645,218.633011 
	C140.237106,216.067017 138.938629,213.822723 135.644623,214.591095 
	C131.939850,215.455292 132.183868,218.584152 132.175339,221.429169 
	C132.158371,227.093048 132.171234,232.757263 132.213516,238.421021 
	C132.253647,243.796585 133.998871,246.313690 137.465332,245.504730 
	C142.011276,244.443848 142.168777,241.024994 140.844391,237.011505 
z"/>
<path fill="#000000" opacity="1.000000" stroke="none" 
	d="
M290.743774,247.447556 
	C291.287994,249.942383 291.698456,252.038284 292.095245,254.064270 
	C285.303131,256.886719 282.223511,255.877365 279.926971,249.772720 
	C278.937408,247.142288 277.106934,247.276489 275.148193,247.364807 
	C273.119446,247.456268 270.767487,246.592651 269.485931,249.275223 
	C266.255127,256.037811 265.248383,256.453033 257.467224,254.556000 
	C257.024200,250.200607 258.878784,246.183502 259.807190,242.055923 
	C262.285431,231.037628 265.222260,220.120895 267.605133,209.083557 
	C268.453003,205.156174 270.583923,204.374191 273.968170,204.643005 
	C277.107635,204.892349 280.454102,203.678024 281.525391,208.763611 
	C284.228119,221.593842 287.541443,234.295471 290.743774,247.447556 
M274.937103,223.555084 
	C274.799408,223.092926 274.661743,222.630768 274.524078,222.168625 
	C274.453278,222.293274 274.320465,222.417999 274.320618,222.542542 
	C274.325348,226.211075 273.386719,229.731659 272.647949,233.283173 
	C272.311676,234.899811 272.317780,236.409210 274.467804,236.513245 
	C276.625641,236.617645 276.835266,235.036942 276.605682,233.456161 
	C276.155273,230.355255 275.567657,227.274277 274.937103,223.555084 
z"/>
<path fill="#000000" opacity="1.000000" stroke="none" 
	d="
M182.914001,250.048248 
	C181.163086,245.580902 177.683823,247.668686 174.998108,247.492798 
	C172.523056,247.330688 172.567993,249.638229 172.077347,251.395706 
	C170.839355,255.830215 167.996979,256.564026 159.929886,254.316040 
	C161.831146,246.337128 163.745605,238.319534 165.651398,230.299896 
	C167.379196,223.029266 169.193405,215.777191 170.777847,208.475357 
	C171.521378,205.048691 173.696655,204.362228 176.648331,204.674194 
	C179.543411,204.980164 183.200485,203.352768 184.299225,208.052048 
	C187.776291,222.923462 191.370056,237.767609 194.891708,252.628677 
	C195.037003,253.241821 194.910278,253.919434 194.910278,254.519150 
	C186.788071,256.658661 184.717361,255.927322 182.914001,250.048248 
M177.201492,225.273209 
	C176.650848,228.022293 176.074417,230.766586 175.560333,233.522491 
	C175.299728,234.919540 175.353500,236.289459 177.201797,236.484314 
	C179.254532,236.700714 179.874466,235.399612 179.612747,233.683670 
	C179.074097,230.152313 178.387909,226.643463 177.529617,221.815704 
	C177.332642,223.678055 177.280975,224.166504 177.201492,225.273209 
z"/>
<path fill="#000000" opacity="1.000000" stroke="none" 
	d="
M110.547768,246.479004 
	C111.305420,255.352066 111.305428,255.359573 103.043915,255.369598 
	C97.882744,255.375854 92.720688,255.295975 87.560715,255.370941 
	C84.839508,255.410492 83.647598,254.285355 83.656174,251.528366 
	C83.700714,237.210373 83.700294,222.892014 83.640816,208.574097 
	C83.629654,205.887421 84.586792,204.613174 87.413307,204.656357 
	C93.571892,204.750427 99.736923,204.808823 105.891663,204.625015 
	C109.718079,204.510742 110.249046,206.619629 110.170052,209.675308 
	C110.093353,212.642349 110.266762,215.566299 105.930023,215.312897 
	C103.939529,215.196579 101.931808,215.393112 99.938545,215.302200 
	C96.636078,215.151566 94.227753,215.367264 94.203987,219.909790 
	C94.180893,224.323120 96.289597,224.941132 99.759857,224.660858 
	C100.917610,224.567352 102.093758,224.714203 103.254150,224.638550 
	C106.590668,224.421005 109.038445,224.786438 109.052589,229.239578 
	C109.066582,233.642593 107.312515,235.327332 103.100548,234.978745 
	C101.779533,234.869415 100.433929,235.080490 99.108086,235.001770 
	C95.444252,234.784210 94.272942,236.444473 94.232803,240.078781 
	C94.188934,244.051102 95.981155,244.683151 99.389816,244.795197 
	C103.055939,244.915695 107.000633,243.385223 110.547768,246.479004 
z"/>
<path fill="#000000" opacity="1.000000" stroke="none" 
	d="
M354.359131,254.401276 
	C353.250671,254.939606 352.457092,255.241714 351.647522,255.293289 
	C343.694916,255.799942 343.657196,255.757431 343.650238,247.633911 
	C343.642273,238.320206 343.553589,229.005142 343.691498,219.693512 
	C343.739197,216.472748 342.575806,215.302689 339.348541,215.248047 
	C334.208038,215.160965 332.137573,211.630875 333.835083,206.650635 
	C334.386810,205.031876 335.527557,204.728668 336.905792,204.723389 
	C345.054901,204.692169 353.204437,204.733887 361.353119,204.664169 
	C364.727234,204.635315 365.119049,206.795792 364.950256,209.318817 
	C364.784637,211.794739 365.720490,215.519821 361.576569,215.138992 
	C355.346130,214.566422 355.105377,217.909241 355.105072,222.683472 
	C355.104401,233.136383 355.881073,243.611343 354.359131,254.401276 
z"/>
<path fill="#000000" opacity="1.000000" stroke="none" 
	d="
M304.340302,216.833893 
	C303.077789,215.035187 301.464661,215.185806 300.035797,215.348907 
	C295.310120,215.888290 294.661621,213.344772 294.583649,209.359344 
	C294.497253,204.943497 296.803070,204.571091 300.200134,204.628372 
	C307.186249,204.746170 314.181366,204.828552 321.161743,204.595291 
	C325.077606,204.464447 326.073151,206.305588 325.926025,209.716614 
	C325.797638,212.693039 325.807526,215.750595 321.562042,215.256073 
	C316.897278,214.712723 316.010803,217.038605 316.102203,221.122528 
	C316.318085,230.767914 315.969055,240.427231 316.248993,250.069305 
	C316.387665,254.845383 314.077576,255.437393 310.138184,255.466232 
	C306.189331,255.495148 304.491608,254.468262 304.573853,250.156845 
	C304.783203,239.182953 304.556396,228.200729 304.340302,216.833893 
z"/>
</svg>